<svg xmlns="http://www.w3.org/2000/svg" xmlns:xlink="http://www.w3.org/1999/xlink" version="1.1" width="256" height="256" viewBox="0 0 256 256" xml:space="preserve">

<defs>
</defs>
<g style="stroke: none; stroke-width: 0; stroke-dasharray: none; stroke-linecap: butt; stroke-linejoin: miter; stroke-miterlimit: 10; fill: none; fill-rule: nonzero; opacity: 1;" transform="translate(1.4065934065934016 1.4065934065934016) scale(2.81 2.81)" >
	<polygon points="2.11,42.45 5.77,42.45 8.27,40.24 10.91,40.24 12.6,42.45 17.41,42.83 18.95,40.24 20.77,42.35 23.08,42.35 25.3,40.24 25.97,41.53 27.7,42.45 43.38,42.83 43.86,38.89 46.17,38.89 46.17,42.26 53.74,42.35 54.97,41.5 61.16,42.83 64.02,40.86 67.3,40.14 68.23,42.45 74.58,42.06 75.03,39.27 78.86,42.83 82.24,42.83 82.24,30.62 78.86,30.62 77.82,33.51 74.58,30.23 70.3,30.62 69.83,33.51 66.76,30.23 57.2,30.91 54.95,31.77 53.74,30.23 50.17,30.71 47.23,30.62 36.55,30.71 24.82,30.23 22.89,34.65 19.9,30.23 14.33,30.91 14.23,32.64 11.35,30.23 7.02,30.23 " style="stroke: none; stroke-width: 1; stroke-dasharray: none; stroke-linecap: butt; stroke-linejoin: miter; stroke-miterlimit: 10; fill: rgb(255,255,255); fill-rule: nonzero; opacity: 1;" transform="  matrix(1 0 0 1 0 0) "/>
	<path d="M 21.064 59.283 h 10.774 l 2.914 -1.649 l 2.665 2.034 c 0 0 5.174 -0.481 5.329 -0.385 c 0.154 0.096 0.828 -3.271 0.828 -3.271 l 4.81 -0.577 l 0.787 3.752 l 3.355 0.096 l 1.214 -3.463 l 2.243 0.192 l 1.221 3.655 l 19.941 -0.481 l 10.389 -0.192 l 1.635 -2.501 l -0.882 -3.428 l 0 -5.23 l -51.062 -0.577 l -3.174 2.238 l -2.693 -2.238 l -10.293 0.385 V 59.283 z" style="stroke: none; stroke-width: 1; stroke-dasharray: none; stroke-linecap: butt; stroke-linejoin: miter; stroke-miterlimit: 10; fill: rgb(255,255,255); fill-rule: nonzero; opacity: 1;" transform=" matrix(1 0 0 1 0 0) " stroke-linecap="round" />
	<polygon points="7.77,37.08 10.91,37.08 9.34,33.08 " style="stroke: none; stroke-width: 1; stroke-dasharray: none; stroke-linecap: butt; stroke-linejoin: miter; stroke-miterlimit: 10; fill: rgb(48,111,197); fill-rule: nonzero; opacity: 1;" transform="  matrix(1 0 0 1 0 0) "/>
	<polygon points="24.47,50.5 24.47,52.35 29.75,52.35 29.75,54.35 24.47,54.35 24.47,56.49 30.33,56.49 33.04,53.49 30.47,50.5 " style="stroke: none; stroke-width: 1; stroke-dasharray: none; stroke-linecap: butt; stroke-linejoin: miter; stroke-miterlimit: 10; fill: rgb(48,111,197); fill-rule: nonzero; opacity: 1;" transform="  matrix(1 0 0 1 0 0) "/>
	<polygon points="65.73,33.08 64.02,37.08 67.3,37.08 " style="stroke: none; stroke-width: 1; stroke-dasharray: none; stroke-linecap: butt; stroke-linejoin: miter; stroke-miterlimit: 10; fill: rgb(48,111,197); fill-rule: nonzero; opacity: 1;" transform="  matrix(1 0 0 1 0 0) "/>
	<polygon points="39.75,57.63 39.75,49.5 36.04,53.49 " style="stroke: none; stroke-width: 1; stroke-dasharray: none; stroke-linecap: butt; stroke-linejoin: miter; stroke-miterlimit: 10; fill: rgb(48,111,197); fill-rule: nonzero; opacity: 1;" transform="  matrix(1 0 0 1 0 0) "/>
	<path d="M 46.744 51.781 c -0.143 -0.857 -0.714 -1.285 -1.571 -1.285 h -2.997 v 2.57 h 3.141 C 46.172 53.066 46.744 52.638 46.744 51.781 z" style="stroke: none; stroke-width: 1; stroke-dasharray: none; stroke-linecap: butt; stroke-linejoin: miter; stroke-miterlimit: 10; fill: rgb(48,111,197); fill-rule: nonzero; opacity: 1;" transform=" matrix(1 0 0 1 0 0) " stroke-linecap="round" />
	<path d="M 56.736 52.781 c 0.286 -0.143 0.429 -0.572 0.429 -0.999 c 0.143 -0.571 -0.143 -0.857 -0.429 -0.999 c -0.285 -0.143 -0.714 -0.143 -1.141 -0.143 h -2.856 v 2.285 h 2.856 C 56.022 52.924 56.451 52.924 56.736 52.781 z" style="stroke: none; stroke-width: 1; stroke-dasharray: none; stroke-linecap: butt; stroke-linejoin: miter; stroke-miterlimit: 10; fill: rgb(48,111,197); fill-rule: nonzero; opacity: 1;" transform=" matrix(1 0 0 1 0 0) " stroke-linecap="round" />
	<path d="M 77.294 29.367 v 1.713 l -0.856 -1.713 h -6.709 v 1.713 l -0.857 -1.713 h -9.137 c -1.57 0 -2.856 0.286 -3.997 0.857 v -0.857 h -6.424 v 0.143 v 0.714 c -0.714 -0.571 -1.57 -0.857 -2.712 -0.857 H 23.616 l -1.571 3.569 l -1.57 -3.569 h -5.139 h -2.142 v 1.713 l -0.714 -1.713 h -0.143 H 6.199 l -2.856 6.71 L 0.06 43.358 L 0 43.501 h 0.06 h 7.281 h 0.091 l 0.052 -0.143 l 0.857 -2.141 h 1.856 l 0.857 2.284 h 8.279 v -0.143 v -1.57 l 0.714 1.713 h 4.14 l 0.713 -1.713 v 1.57 v 0.143 h 3.284 h 16.418 h 0.143 v -3.712 h 0.286 c 0.285 0 0.285 0 0.285 0.428 v 3.141 h 10.279 v -0.857 c 0.857 0.429 2.141 0.857 3.854 0.857 h 4.283 l 0.857 -2.284 h 1.998 l 0.857 2.284 h 8.28 v -1.427 v -0.714 l 1.285 2.141 h 0.285 h 0.143 h 6.282 V 29.367 H 77.294 L 77.294 29.367 L 77.294 29.367 z M 28.898 41.36 H 27.47 h -0.856 v -0.856 v -6.996 l -0.143 0.327 v -0.004 L 23.15 41.36 h -0.105 h -0.764 h -1.235 l -3.426 -7.852 v 7.852 h -4.854 l -0.999 -2.141 H 6.913 L 5.913 41.36 h -2.51 l 4.223 -9.994 h 3.569 l 3.997 9.565 v -9.565 h 0.856 h 2.926 l 0.067 0.143 h 0.005 l 1.801 3.92 l 1.293 2.937 l 0.046 -0.148 l 2.855 -6.852 h 3.855 L 28.898 41.36 L 28.898 41.36 L 28.898 41.36 z M 38.749 33.508 h -5.568 v 1.856 h 5.425 v 1.999 h -5.425 v 1.999 h 5.568 v 2.141 h -7.995 V 31.366 h 7.995 V 33.508 L 38.749 33.508 z M 48.932 37.189 c 0.004 0.003 0.008 0.006 0.013 0.009 c 0.054 0.057 0.1 0.114 0.14 0.169 c 0.273 0.358 0.495 0.892 0.506 1.674 c 0.001 0.014 0.001 0.027 0.002 0.04 c 0 0.008 0.001 0.015 0.001 0.023 c 0 0.005 0 0.008 0 0.012 c 0.003 0.079 0.005 0.159 0.005 0.246 v 1.999 h -2.141 v -1.143 c 0 -0.571 0 -1.428 -0.429 -1.999 c -0.135 -0.135 -0.271 -0.224 -0.42 -0.287 c -0.214 -0.139 -0.619 -0.141 -1.292 -0.141 h -2.571 v 3.569 h -2.426 v -9.994 h 5.425 c 1.284 0 2.141 0 2.855 0.428 c 0.7 0.42 1.122 1.117 1.138 2.22 c -0.033 1.519 -1.008 2.353 -1.709 2.634 C 48.028 36.649 48.505 36.744 48.932 37.189 z M 53.739 41.36 h -2.427 v -9.994 h 2.427 V 41.36 z M 81.578 41.36 h -3.141 l -4.568 -7.567 v 6.282 l -0.015 -0.015 v 1.306 h -2.412 V 41.36 h -2.427 l -0.857 -2.141 h -4.997 l -0.857 2.284 h -2.712 c -1.141 0 -2.57 -0.285 -3.426 -1.142 c -0.857 -0.857 -1.284 -1.999 -1.284 -3.854 c 0 -1.428 0.285 -2.856 1.284 -3.998 c 0.713 -0.857 1.999 -1.142 3.569 -1.142 h 2.285 v 2.141 h -2.285 c -0.857 0 -1.284 0.142 -1.856 0.571 c -0.427 0.428 -0.713 1.284 -0.713 2.284 c 0 1.142 0.143 1.856 0.713 2.427 c 0.429 0.429 1 0.572 1.714 0.572 h 0.999 l 3.283 -7.852 h 1.428 h 2.141 l 3.998 9.565 v -0.488 v -3.224 v -0.285 V 31.51 h 3.569 l 4.139 6.995 V 31.51 h 2.428 L 81.578 41.36 L 81.578 41.36 L 81.578 41.36 L 81.578 41.36 z" style="stroke: none; stroke-width: 1; stroke-dasharray: none; stroke-linecap: butt; stroke-linejoin: miter; stroke-miterlimit: 10; fill: rgb(255,255,255); fill-rule: nonzero; opacity: 1;" transform=" matrix(1 0 0 1 0 0) " stroke-linecap="round" />
	<path d="M 46.896 35.529 c 0.042 -0.045 0.079 -0.095 0.111 -0.153 c 0.129 -0.205 0.278 -0.573 0.198 -1.077 c -0.003 -0.046 -0.012 -0.089 -0.022 -0.13 c -0.003 -0.011 -0.002 -0.022 -0.005 -0.033 l -0.001 0 c -0.071 -0.245 -0.252 -0.395 -0.433 -0.486 c -0.286 -0.142 -0.714 -0.142 -1.143 -0.142 h -2.856 v 2.285 h 2.856 c 0.428 0 0.857 0 1.143 -0.143 c 0.043 -0.022 0.081 -0.051 0.118 -0.085 l 0 0.002 C 46.862 35.566 46.877 35.551 46.896 35.529 z" style="stroke: none; stroke-width: 1; stroke-dasharray: none; stroke-linecap: butt; stroke-linejoin: miter; stroke-miterlimit: 10; fill: rgb(48,111,197); fill-rule: nonzero; opacity: 1;" transform=" matrix(1 0 0 1 0 0) " stroke-linecap="round" />
	<path d="M 90 55.636 c 0 -0.999 -0.285 -1.999 -0.713 -2.713 V 46.5 H 89.28 v -0.429 c 0 0 -5.984 0 -6.874 0 c -0.89 0 -1.971 0.856 -1.971 0.856 v -0.856 h -6.567 c -1 0 -2.284 0.286 -2.856 0.856 v -0.856 H 59.307 V 46.5 v 0.427 c -0.856 -0.713 -2.428 -0.856 -3.141 -0.856 h -7.709 v 0.429 v 0.427 c -0.714 -0.713 -2.428 -0.856 -3.285 -0.856 h -8.564 l -1.999 2.142 l -1.856 -2.142 h -0.598 h -0.973 H 19.904 v 0.429 v 1.128 V 60.49 h 12.563 l 2.064 -2.065 l 1.789 2.065 h 0.143 h 7.239 h 0.328 h 0.143 h 0.142 v -1.428 v -1.856 h 0.714 c 0.998 0 2.284 0 3.283 -0.429 v 3.569 v 0.286 h 6.424 v -0.286 v -3.426 h 0.285 c 0.429 0 0.429 0 0.429 0.428 v 2.998 v 0.286 h 19.415 c 1.286 0 2.57 -0.286 3.284 -0.857 v 0.571 v 0.286 h 6.139 c 1.284 0 2.57 -0.143 3.426 -0.714 c 1.314 -0.789 2.143 -2.185 2.266 -3.849 c 0.006 -0.049 0.013 -0.099 0.017 -0.148 l -0.008 -0.008 C 89.996 55.821 90 55.729 90 55.636 z M 45.031 54.78 h -2.856 v 0.427 v 0.857 v 0.857 v 1.57 h -4.692 l -2.731 -3.141 l -0.009 0.01 l -0.133 -0.154 l -3.141 3.284 h -9.137 v -9.993 h 9.279 l 2.535 2.777 l 0.533 0.581 l 0.072 -0.075 l 2.998 -3.283 h 7.566 c 1.468 0 3.113 0.362 3.736 1.856 c 0.075 0.296 0.118 0.625 0.118 0.998 C 49.17 54.208 47.171 54.78 45.031 54.78 z M 59.307 54.637 c 0.285 0.427 0.428 0.999 0.428 1.856 v 1.998 h -2.427 v -1.284 c 0 -0.572 0 -1.571 -0.429 -2 c -0.285 -0.427 -0.857 -0.427 -1.713 -0.427 h -2.569 v 3.711 H 50.17 V 48.355 h 5.425 c 1.141 0 2.141 0 2.856 0.428 c 0.713 0.429 1.284 1.143 1.284 2.285 c 0 1.57 -0.999 2.427 -1.713 2.713 C 58.736 54.065 59.164 54.351 59.307 54.637 z M 69.158 50.496 h -5.568 v 1.856 h 5.425 v 1.999 h -5.425 v 1.999 h 5.568 v 2.141 h -7.995 V 48.355 h 7.995 V 50.496 z M 75.153 58.491 h -4.569 V 56.35 h 4.569 c 0.427 0 0.714 0 1 -0.286 c 0.143 -0.143 0.285 -0.428 0.285 -0.714 c 0 -0.286 -0.142 -0.57 -0.285 -0.713 c -0.143 -0.143 -0.429 -0.286 -0.857 -0.286 c -2.284 -0.143 -4.997 0 -4.997 -3.14 c 0 -1.428 0.857 -2.998 3.426 -2.998 h 4.711 v 2.427 h -4.425 c -0.428 0 -0.714 0 -1 0.143 c -0.285 0.143 -0.285 0.429 -0.285 0.714 c 0 0.428 0.285 0.571 0.57 0.713 c 0.286 0.143 0.571 0.143 0.857 0.143 h 1.285 c 1.285 0 2.141 0.286 2.712 0.857 c 0.428 0.428 0.714 1.142 0.714 2.141 C 78.865 57.491 77.58 58.491 75.153 58.491 z M 87.431 57.491 c -0.57 0.572 -1.57 1 -2.998 1 h -4.567 V 56.35 h 4.567 c 0.428 0 0.715 0 1 -0.286 c 0.142 -0.143 0.286 -0.428 0.286 -0.714 c 0 -0.286 -0.143 -0.57 -0.286 -0.713 c -0.143 -0.143 -0.428 -0.286 -0.857 -0.286 c -2.283 -0.143 -4.997 0 -4.997 -3.14 c 0 -1.357 0.776 -2.583 2.691 -2.947 c 0.229 -0.032 0.471 -0.052 0.736 -0.052 h 4.711 v 2.427 h -3.141 h -1.142 h -0.143 c -0.428 0 -0.714 0 -0.999 0.143 c -0.144 0.143 -0.287 0.429 -0.287 0.714 c 0 0.428 0.143 0.571 0.572 0.713 c 0.285 0.143 0.571 0.143 0.857 0.143 h 0.142 h 1.143 c 0.624 0 1.096 0.077 1.528 0.229 c 0.395 0.143 1.705 0.729 1.997 2.257 c 0.025 0.16 0.044 0.327 0.044 0.512 C 88.287 56.207 88.001 56.921 87.431 57.491 z" style="stroke: none; stroke-width: 1; stroke-dasharray: none; stroke-linecap: butt; stroke-linejoin: miter; stroke-miterlimit: 10; fill: rgb(255,255,255); fill-rule: nonzero; opacity: 1;" transform=" matrix(1 0 0 1 0 0) " stroke-linecap="round" />
	<path d="M 77.294 29.367 v 1.713 l -0.856 -1.713 h -6.709 v 1.713 l -0.857 -1.713 h -9.137 c -1.57 0 -2.856 0.286 -3.997 0.857 v -0.857 h -6.424 v 0.143 v 0.714 c -0.714 -0.571 -1.57 -0.857 -2.712 -0.857 H 23.616 l -1.571 3.569 l -1.57 -3.569 h -5.139 h -2.142 v 1.713 l -0.714 -1.713 h -0.143 H 6.199 l -2.856 6.71 L 0.06 43.358 L 0 43.501 h 0.06 h 7.281 h 0.091 l 0.052 -0.143 l 0.857 -2.141 h 1.856 l 0.857 2.284 h 8.279 v -0.143 v -1.57 l 0.714 1.713 h 4.14 l 0.713 -1.713 v 1.57 v 0.143 h 3.284 h 16.418 h 0.143 v -3.712 h 0.286 c 0.285 0 0.285 0 0.285 0.428 v 3.141 h 10.279 v -0.857 c 0.857 0.429 2.141 0.857 3.854 0.857 h 4.283 l 0.857 -2.284 h 1.998 l 0.857 2.284 h 8.28 v -1.427 v -0.714 l 1.285 2.141 h 0.285 h 0.143 h 6.282 V 29.367 H 77.294 L 77.294 29.367 z M 27.47 41.36 h -0.856 v -0.856 v -6.996 l -0.143 0.327 v -0.004 L 23.15 41.36 h -0.105 h -0.764 h -1.235 l -3.426 -7.852 v 7.852 h -4.854 l -0.999 -2.141 H 6.913 L 5.913 41.36 h -2.51 l 4.223 -9.994 h 3.569 l 3.997 9.565 v -9.565 h 0.856 h 2.926 l 0.067 0.143 h 0.005 l 1.801 3.92 l 1.293 2.937 l 0.046 -0.148 l 2.855 -6.852 h 3.855 v 9.993 H 27.47 z M 38.749 33.508 h -5.568 v 1.856 h 5.425 v 1.999 h -5.425 v 1.999 h 5.568 v 2.141 h -7.995 V 31.366 h 7.995 V 33.508 z M 48.932 37.189 c 0.004 0.003 0.008 0.006 0.013 0.009 c 0.054 0.057 0.1 0.114 0.14 0.169 c 0.273 0.358 0.495 0.892 0.506 1.674 c 0.001 0.014 0.001 0.027 0.002 0.04 c 0 0.008 0.001 0.015 0.001 0.023 c 0 0.005 0 0.008 0 0.012 c 0.003 0.079 0.005 0.159 0.005 0.246 v 1.999 h -2.141 v -1.143 c 0 -0.571 0 -1.428 -0.429 -1.999 c -0.135 -0.135 -0.271 -0.224 -0.42 -0.287 c -0.214 -0.139 -0.619 -0.141 -1.292 -0.141 h -2.571 v 3.569 h -2.426 v -9.994 h 5.425 c 1.284 0 2.141 0 2.855 0.428 c 0.7 0.42 1.122 1.117 1.138 2.22 c -0.033 1.519 -1.008 2.353 -1.709 2.634 C 48.028 36.649 48.505 36.744 48.932 37.189 z M 53.739 41.36 h -2.427 v -9.994 h 2.427 V 41.36 z M 79.149 31.51 h 2.428 v 9.85 h -3.141 l -4.568 -7.567 v 6.282 l -0.015 -0.015 v 1.306 h -2.412 V 41.36 h -2.427 l -0.857 -2.141 h -4.997 l -0.857 2.284 h -2.712 c -1.141 0 -2.57 -0.285 -3.426 -1.142 c -0.857 -0.857 -1.284 -1.999 -1.284 -3.854 c 0 -1.428 0.285 -2.856 1.284 -3.998 c 0.713 -0.857 1.999 -1.142 3.569 -1.142 h 2.285 v 2.141 h -2.285 c -0.857 0 -1.284 0.142 -1.856 0.571 c -0.427 0.428 -0.713 1.284 -0.713 2.284 c 0 1.142 0.143 1.856 0.713 2.427 c 0.429 0.429 1 0.572 1.714 0.572 h 0.999 l 3.283 -7.852 h 1.428 h 2.141 l 3.998 9.565 v -0.488 v -3.224 v -0.285 V 31.51 h 3.569 l 4.139 6.995 V 31.51 z" style="stroke: none; stroke-width: 1; stroke-dasharray: none; stroke-linecap: butt; stroke-linejoin: miter; stroke-miterlimit: 10; fill: rgb(48,111,197); fill-rule: nonzero; opacity: 1;" transform=" matrix(1 0 0 1 0 0) " stroke-linecap="round" />
	<path d="M 89.287 52.924 V 46.5 H 89.28 v -0.429 c 0 0 -5.984 0 -6.874 0 c -0.89 0 -1.971 0.856 -1.971 0.856 v -0.856 h -6.567 c -1 0 -2.284 0.286 -2.856 0.856 v -0.856 H 59.307 V 46.5 v 0.427 c -0.856 -0.713 -2.428 -0.856 -3.141 -0.856 h -7.709 v 0.429 v 0.427 c -0.714 -0.713 -2.428 -0.856 -3.285 -0.856 h -8.564 l -1.999 2.142 l -1.856 -2.142 h -0.598 h -0.973 H 19.904 v 0.429 v 1.128 V 60.49 h 12.563 l 2.064 -2.065 l 1.789 2.065 h 0.143 h 7.239 h 0.328 h 0.143 h 0.142 v -1.428 v -1.856 h 0.714 c 0.998 0 2.284 0 3.283 -0.429 v 3.569 v 0.286 h 6.424 v -0.286 v -3.426 h 0.285 c 0.429 0 0.429 0 0.429 0.428 v 2.998 v 0.286 h 19.415 c 1.286 0 2.57 -0.286 3.284 -0.857 v 0.571 v 0.286 h 6.139 c 1.284 0 2.57 -0.143 3.426 -0.714 c 1.314 -0.789 2.143 -2.185 2.266 -3.849 c 0.006 -0.049 0.013 -0.099 0.017 -0.148 l -0.008 -0.008 C 89.996 55.821 90 55.729 90 55.636 C 90 54.637 89.715 53.637 89.287 52.924 z M 45.031 54.78 h -2.856 v 0.427 v 0.857 v 0.857 v 1.57 h -4.692 l -2.731 -3.141 l -0.009 0.01 l -0.133 -0.154 l -3.141 3.284 h -9.137 v -9.993 h 9.279 l 2.535 2.777 l 0.533 0.581 l 0.072 -0.075 l 2.998 -3.283 h 7.566 c 1.468 0 3.113 0.362 3.736 1.856 c 0.075 0.296 0.118 0.625 0.118 0.998 C 49.17 54.208 47.171 54.78 45.031 54.78 z M 59.307 54.637 c 0.285 0.427 0.428 0.999 0.428 1.856 v 1.998 h -2.427 v -1.284 c 0 -0.572 0 -1.571 -0.429 -2 c -0.285 -0.427 -0.857 -0.427 -1.713 -0.427 h -2.569 v 3.711 H 50.17 V 48.355 h 5.425 c 1.141 0 2.141 0 2.856 0.428 c 0.713 0.429 1.284 1.143 1.284 2.285 c 0 1.57 -0.999 2.427 -1.713 2.713 C 58.736 54.065 59.164 54.351 59.307 54.637 z M 69.158 50.496 h -5.568 v 1.856 h 5.425 v 1.999 h -5.425 v 1.999 h 5.568 v 2.141 h -7.995 V 48.355 h 7.995 V 50.496 z M 75.153 58.491 h -4.569 V 56.35 h 4.569 c 0.427 0 0.714 0 1 -0.286 c 0.143 -0.143 0.285 -0.428 0.285 -0.714 c 0 -0.286 -0.142 -0.57 -0.285 -0.713 c -0.143 -0.143 -0.429 -0.286 -0.857 -0.286 c -2.284 -0.143 -4.997 0 -4.997 -3.14 c 0 -1.428 0.857 -2.998 3.426 -2.998 h 4.711 v 2.427 h -4.425 c -0.428 0 -0.714 0 -1 0.143 c -0.285 0.143 -0.285 0.429 -0.285 0.714 c 0 0.428 0.285 0.571 0.57 0.713 c 0.286 0.143 0.571 0.143 0.857 0.143 h 1.285 c 1.285 0 2.141 0.286 2.712 0.857 c 0.428 0.428 0.714 1.142 0.714 2.141 C 78.865 57.491 77.58 58.491 75.153 58.491 z M 87.431 57.491 c -0.57 0.572 -1.57 1 -2.998 1 h -4.567 V 56.35 h 4.567 c 0.428 0 0.715 0 1 -0.286 c 0.142 -0.143 0.286 -0.428 0.286 -0.714 c 0 -0.286 -0.143 -0.57 -0.286 -0.713 c -0.143 -0.143 -0.428 -0.286 -0.857 -0.286 c -2.283 -0.143 -4.997 0 -4.997 -3.14 c 0 -1.357 0.776 -2.583 2.691 -2.947 c 0.229 -0.032 0.471 -0.052 0.736 -0.052 h 4.712 v 2.427 h -3.141 h -1.142 h -0.143 c -0.428 0 -0.714 0 -0.999 0.143 c -0.144 0.143 -0.287 0.429 -0.287 0.714 c 0 0.428 0.143 0.571 0.572 0.713 c 0.285 0.143 0.571 0.143 0.857 0.143 h 0.142 h 1.143 c 0.624 0 1.096 0.077 1.528 0.229 c 0.395 0.143 1.704 0.729 1.997 2.257 c 0.025 0.16 0.044 0.327 0.044 0.512 C 88.287 56.207 88.001 56.921 87.431 57.491 z" style="stroke: none; stroke-width: 1; stroke-dasharray: none; stroke-linecap: butt; stroke-linejoin: miter; stroke-miterlimit: 10; fill: rgb(48,111,197); fill-rule: nonzero; opacity: 1;" transform=" matrix(1 0 0 1 0 0) " stroke-linecap="round" />
</g>
</svg>