<svg xmlns="http://www.w3.org/2000/svg" xmlns:xlink="http://www.w3.org/1999/xlink" version="1.1" width="256" height="256" viewBox="0 0 256 256" xml:space="preserve">

<defs>
</defs>
<g style="stroke: none; stroke-width: 0; stroke-dasharray: none; stroke-linecap: butt; stroke-linejoin: miter; stroke-miterlimit: 10; fill: none; fill-rule: nonzero; opacity: 1;" transform="translate(1.4065934065934016 1.4065934065934016) scale(2.81 2.81)" >
	<path d="M 84.259 16.068 H 5.741 C 2.57 16.068 0 18.638 0 21.809 v 6.131 v 2 V 60.06 v 2 v 6.131 c 0 3.171 2.57 5.741 5.741 5.741 h 78.518 c 3.171 0 5.741 -2.57 5.741 -5.741 V 62.06 v -2 V 29.94 v -2 v -6.131 C 90 18.638 87.43 16.068 84.259 16.068 z" style="stroke: none; stroke-width: 1; stroke-dasharray: none; stroke-linecap: butt; stroke-linejoin: miter; stroke-miterlimit: 10; fill: rgb(59,55,55); fill-rule: nonzero; opacity: 1;" transform=" matrix(1 0 0 1 0 0) " stroke-linecap="round" />
	<path d="M 315.653 373.289 c 0.533 0 0.994 0.096 1.381 0.283 c 0.389 0.189 0.71 0.445 0.968 0.766 c 0.254 0.323 0.443 0.7 0.565 1.132 c 0.121 0.433 0.182 0.899 0.182 1.398 c 0 0.766 -0.14 1.49 -0.424 2.172 c -0.283 0.683 -0.668 1.276 -1.157 1.782 c -0.489 0.505 -1.066 0.903 -1.731 1.197 c -0.664 0.294 -1.387 0.441 -2.162 0.441 c -0.1 0 -0.277 -0.003 -0.526 -0.008 c -0.249 -0.005 -0.535 -0.031 -0.856 -0.074 c -0.323 -0.045 -0.664 -0.112 -1.024 -0.201 c -0.36 -0.088 -0.702 -0.21 -1.024 -0.366 l 2.88 -12.099 l 2.579 -0.4 l -1.031 4.294 c 0.221 -0.099 0.443 -0.177 0.665 -0.233 C 315.159 373.318 315.398 373.289 315.653 373.289 L 315.653 373.289 z M 313.489 380.414 c 0.388 0 0.754 -0.096 1.098 -0.283 c 0.345 -0.188 0.642 -0.441 0.892 -0.757 c 0.249 -0.317 0.447 -0.675 0.59 -1.074 c 0.144 -0.399 0.217 -0.816 0.217 -1.249 c 0 -0.532 -0.089 -0.948 -0.266 -1.248 c -0.177 -0.299 -0.506 -0.449 -0.982 -0.449 c -0.156 0 -0.357 0.03 -0.607 0.083 c -0.25 0.057 -0.474 0.174 -0.675 0.35 l -1.098 4.56 c 0.066 0.012 0.125 0.023 0.175 0.033 c 0.049 0.011 0.103 0.019 0.157 0.025 c 0.057 0.006 0.122 0.01 0.201 0.01 S 313.367 380.414 313.489 380.414 L 313.489 380.414 z" style="stroke: none; stroke-width: 1; stroke-dasharray: none; stroke-linecap: butt; stroke-linejoin: miter; stroke-miterlimit: 10; fill: rgb(255,255,255); fill-rule: nonzero; opacity: 1;" transform=" matrix(1 0 0 1 -289.60744 -317.50471) " stroke-linecap="round" />
	<path d="M 321.423 382.229 h -2.463 l 2.08 -8.754 h 2.48 L 321.423 382.229 z M 322.622 372.408 c -0.344 0 -0.656 -0.102 -0.932 -0.307 c -0.279 -0.204 -0.417 -0.518 -0.417 -0.941 c 0 -0.233 0.047 -0.451 0.141 -0.657 c 0.095 -0.206 0.219 -0.382 0.375 -0.533 c 0.156 -0.149 0.336 -0.268 0.54 -0.358 c 0.206 -0.088 0.425 -0.133 0.658 -0.133 c 0.344 0 0.654 0.102 0.931 0.307 c 0.277 0.206 0.416 0.52 0.416 0.941 c 0 0.233 -0.047 0.453 -0.142 0.658 c -0.094 0.206 -0.218 0.382 -0.374 0.533 c -0.154 0.149 -0.336 0.268 -0.54 0.357 C 323.073 372.365 322.855 372.408 322.622 372.408 L 322.622 372.408 z" style="stroke: none; stroke-width: 1; stroke-dasharray: none; stroke-linecap: butt; stroke-linejoin: miter; stroke-miterlimit: 10; fill: rgb(255,255,255); fill-rule: nonzero; opacity: 1;" transform=" matrix(1 0 0 1 -289.60744 -317.50471) " stroke-linecap="round" />
	<path d="M 325.679 371.293 l 2.58 -0.4 l -0.634 2.58 h 2.763 l -0.499 2.03 h -2.747 l -0.732 3.062 c -0.067 0.255 -0.106 0.494 -0.116 0.715 c -0.012 0.223 0.016 0.414 0.083 0.575 c 0.066 0.161 0.185 0.286 0.358 0.374 c 0.172 0.089 0.418 0.134 0.74 0.134 c 0.266 0 0.525 -0.025 0.775 -0.075 c 0.249 -0.049 0.501 -0.118 0.756 -0.208 l 0.184 1.898 c -0.333 0.122 -0.693 0.227 -1.082 0.315 c -0.389 0.09 -0.85 0.133 -1.382 0.133 c -0.765 0 -1.359 -0.114 -1.781 -0.34 c -0.422 -0.228 -0.72 -0.539 -0.899 -0.933 c -0.176 -0.393 -0.255 -0.845 -0.233 -1.356 c 0.023 -0.511 0.1 -1.049 0.233 -1.615 L 325.679 371.293 L 325.679 371.293 z" style="stroke: none; stroke-width: 1; stroke-dasharray: none; stroke-linecap: butt; stroke-linejoin: miter; stroke-miterlimit: 10; fill: rgb(255,255,255); fill-rule: nonzero; opacity: 1;" transform=" matrix(1 0 0 1 -289.60744 -317.50471) " stroke-linecap="round" />
	<path d="M 330.281 378.733 c 0 -0.754 0.122 -1.465 0.366 -2.131 c 0.244 -0.666 0.594 -1.249 1.05 -1.749 c 0.454 -0.498 1.006 -0.892 1.657 -1.181 c 0.647 -0.288 1.372 -0.433 2.171 -0.433 c 0.5 0 0.947 0.047 1.34 0.142 c 0.395 0.096 0.752 0.219 1.074 0.374 l -0.85 1.932 c -0.222 -0.09 -0.452 -0.169 -0.69 -0.241 c -0.238 -0.073 -0.529 -0.109 -0.874 -0.109 c -0.822 0 -1.472 0.283 -1.956 0.848 c -0.482 0.565 -0.725 1.326 -0.725 2.281 c 0 0.566 0.122 1.023 0.367 1.373 c 0.244 0.35 0.694 0.524 1.348 0.524 c 0.323 0 0.634 -0.034 0.932 -0.099 c 0.3 -0.067 0.566 -0.15 0.799 -0.249 l 0.184 1.98 c -0.312 0.121 -0.655 0.23 -1.032 0.326 c -0.378 0.092 -0.827 0.14 -1.349 0.14 c -0.688 0 -1.271 -0.101 -1.747 -0.299 c -0.477 -0.201 -0.871 -0.469 -1.181 -0.807 c -0.312 -0.34 -0.536 -0.736 -0.674 -1.191 C 330.351 379.709 330.281 379.231 330.281 378.733 L 330.281 378.733 z" style="stroke: none; stroke-width: 1; stroke-dasharray: none; stroke-linecap: butt; stroke-linejoin: miter; stroke-miterlimit: 10; fill: rgb(255,255,255); fill-rule: nonzero; opacity: 1;" transform=" matrix(1 0 0 1 -289.60744 -317.50471) " stroke-linecap="round" />
	<path d="M 341.224 382.461 c -0.588 0 -1.099 -0.09 -1.532 -0.267 c -0.432 -0.177 -0.79 -0.426 -1.073 -0.749 c -0.283 -0.321 -0.495 -0.701 -0.641 -1.14 c -0.145 -0.438 -0.215 -0.923 -0.215 -1.455 c 0 -0.667 0.107 -1.334 0.323 -1.998 c 0.215 -0.666 0.535 -1.265 0.958 -1.797 c 0.42 -0.533 0.937 -0.969 1.547 -1.308 c 0.609 -0.337 1.309 -0.507 2.096 -0.507 c 0.577 0 1.085 0.09 1.524 0.267 c 0.437 0.177 0.797 0.428 1.082 0.749 c 0.282 0.323 0.495 0.701 0.639 1.14 c 0.145 0.437 0.216 0.924 0.216 1.456 c 0 0.665 -0.106 1.331 -0.315 1.998 c -0.21 0.664 -0.521 1.264 -0.932 1.797 c -0.41 0.532 -0.923 0.968 -1.539 1.306 C 342.748 382.291 342.034 382.461 341.224 382.461 L 341.224 382.461 z M 342.455 375.337 c -0.365 0 -0.688 0.106 -0.964 0.315 c -0.277 0.212 -0.51 0.478 -0.698 0.799 c -0.19 0.323 -0.331 0.674 -0.426 1.057 c -0.094 0.383 -0.141 0.746 -0.141 1.09 c 0 0.555 0.09 0.988 0.266 1.299 c 0.179 0.31 0.499 0.465 0.966 0.465 c 0.366 0 0.688 -0.105 0.966 -0.317 c 0.276 -0.21 0.509 -0.477 0.698 -0.799 c 0.189 -0.321 0.331 -0.674 0.426 -1.057 c 0.093 -0.382 0.141 -0.746 0.141 -1.09 c 0 -0.554 -0.089 -0.988 -0.267 -1.299 C 343.243 375.493 342.921 375.337 342.455 375.337 L 342.455 375.337 z" style="stroke: none; stroke-width: 1; stroke-dasharray: none; stroke-linecap: butt; stroke-linejoin: miter; stroke-miterlimit: 10; fill: rgb(255,255,255); fill-rule: nonzero; opacity: 1;" transform=" matrix(1 0 0 1 -289.60744 -317.50471) " stroke-linecap="round" />
	<path d="M 348.834 382.229 h -2.465 l 2.08 -8.754 h 2.482 L 348.834 382.229 z M 350.031 372.408 c -0.344 0 -0.655 -0.102 -0.931 -0.307 c -0.277 -0.204 -0.417 -0.518 -0.417 -0.941 c 0 -0.233 0.048 -0.451 0.142 -0.657 c 0.094 -0.206 0.219 -0.382 0.375 -0.533 c 0.155 -0.149 0.337 -0.268 0.541 -0.358 c 0.205 -0.088 0.424 -0.133 0.656 -0.133 c 0.344 0 0.656 0.102 0.933 0.307 c 0.277 0.206 0.417 0.52 0.417 0.941 c 0 0.233 -0.05 0.453 -0.143 0.658 c -0.093 0.206 -0.218 0.382 -0.373 0.533 c -0.156 0.149 -0.336 0.268 -0.54 0.357 C 350.483 372.365 350.265 372.408 350.031 372.408 z" style="stroke: none; stroke-width: 1; stroke-dasharray: none; stroke-linecap: butt; stroke-linejoin: miter; stroke-miterlimit: 10; fill: rgb(255,255,255); fill-rule: nonzero; opacity: 1;" transform=" matrix(1 0 0 1 -289.60744 -317.50471) " stroke-linecap="round" />
	<path d="M 352.706 373.873 c 0.187 -0.055 0.396 -0.12 0.623 -0.192 c 0.228 -0.072 0.483 -0.138 0.767 -0.198 c 0.281 -0.062 0.599 -0.112 0.948 -0.151 c 0.349 -0.04 0.747 -0.059 1.189 -0.059 c 1.299 0 2.195 0.378 2.689 1.133 c 0.494 0.754 0.58 1.787 0.259 3.096 l -1.133 4.727 h -2.48 l 1.098 -4.627 c 0.067 -0.289 0.12 -0.568 0.158 -0.841 c 0.039 -0.27 0.037 -0.509 -0.009 -0.715 c -0.044 -0.204 -0.147 -0.371 -0.307 -0.5 c -0.163 -0.127 -0.408 -0.191 -0.741 -0.191 c -0.321 0 -0.648 0.035 -0.982 0.101 l -1.615 6.773 h -2.481 L 352.706 373.873 z" style="stroke: none; stroke-width: 1; stroke-dasharray: none; stroke-linecap: butt; stroke-linejoin: miter; stroke-miterlimit: 10; fill: rgb(255,255,255); fill-rule: nonzero; opacity: 1;" transform=" matrix(1 0 0 1 -289.60744 -317.50471) " stroke-linecap="round" />
	<path d="M 56.323 39.542 c -1.559 6.254 -7.893 10.06 -14.148 8.5 c -6.252 -1.559 -10.058 -7.894 -8.498 -14.147 c 1.558 -6.255 7.893 -10.061 14.146 -8.502 C 54.077 26.953 57.883 33.288 56.323 39.542 L 56.323 39.542 z" style="stroke: none; stroke-width: 1; stroke-dasharray: none; stroke-linecap: butt; stroke-linejoin: miter; stroke-miterlimit: 10; fill: rgb(247,147,26); fill-rule: nonzero; opacity: 1;" transform=" matrix(1 0 0 1 0 0) " stroke-linecap="round" />
	<path d="M 50.147 35.055 c 0.232 -1.553 -0.95 -2.388 -2.568 -2.945 l 0.525 -2.104 l -1.281 -0.319 l -0.511 2.049 c -0.337 -0.084 -0.683 -0.163 -1.026 -0.242 l 0.514 -2.062 l -1.28 -0.319 l -0.525 2.103 c -0.279 -0.063 -0.552 -0.126 -0.818 -0.192 l 0.001 -0.007 l -1.766 -0.441 l -0.341 1.368 c 0 0 0.95 0.218 0.93 0.231 c 0.519 0.13 0.613 0.473 0.597 0.745 l -0.598 2.397 c 0.036 0.009 0.082 0.022 0.133 0.043 c -0.043 -0.011 -0.088 -0.022 -0.135 -0.034 l -0.838 3.358 c -0.063 0.158 -0.224 0.394 -0.587 0.304 c 0.013 0.019 -0.931 -0.232 -0.931 -0.232 l -0.636 1.466 l 1.667 0.416 c 0.31 0.078 0.614 0.159 0.913 0.236 l -0.53 2.128 l 1.279 0.319 l 0.525 -2.106 c 0.349 0.095 0.689 0.182 1.021 0.265 l -0.523 2.096 l 1.281 0.319 l 0.53 -2.124 c 2.184 0.413 3.827 0.247 4.518 -1.729 c 0.557 -1.591 -0.028 -2.508 -1.177 -3.106 C 49.348 36.743 49.979 36.192 50.147 35.055 L 50.147 35.055 z M 47.221 39.159 c -0.396 1.591 -3.074 0.731 -3.942 0.515 l 0.703 -2.82 C 44.85 37.071 47.634 37.5 47.221 39.159 L 47.221 39.159 z M 47.617 35.032 c -0.361 1.447 -2.59 0.712 -3.313 0.532 l 0.638 -2.557 C 45.664 33.186 47.993 33.523 47.617 35.032 z" style="stroke: none; stroke-width: 1; stroke-dasharray: none; stroke-linecap: butt; stroke-linejoin: miter; stroke-miterlimit: 10; fill: rgb(255,255,255); fill-rule: nonzero; opacity: 1;" transform=" matrix(1 0 0 1 0 0) " stroke-linecap="round" />
	<path d="M 4 68.191 V 62.06 v -2 V 29.94 v -2 v -6.131 c 0 -3.171 2.57 -5.741 5.741 -5.741 h -4 C 2.57 16.068 0 18.638 0 21.809 v 6.131 V 62.06 v 6.131 c 0 3.171 2.57 5.741 5.741 5.741 h 4 C 6.57 73.932 4 71.362 4 68.191 z" style="stroke: none; stroke-width: 1; stroke-dasharray: none; stroke-linecap: butt; stroke-linejoin: miter; stroke-miterlimit: 10; fill: rgb(46,42,42); fill-rule: nonzero; opacity: 1;" transform=" matrix(1 0 0 1 0 0) " stroke-linecap="round" />
</g>
</svg>